<?xml version="1.0" encoding="UTF-8" standalone="no"?>
<svg
   xmlns:dc="http://purl.org/dc/elements/1.1/"
   xmlns:cc="http://creativecommons.org/ns#"
   xmlns:rdf="http://www.w3.org/1999/02/22-rdf-syntax-ns#"
   xmlns:svg="http://www.w3.org/2000/svg"
   xmlns="http://www.w3.org/2000/svg"
   id="svg8"
   version="1.1"
   viewBox="0 0 306 106"
   height="106mm"
   width="306mm">
  <defs
     id="defs2" />
  <metadata
     id="metadata5">
    <rdf:RDF>
      <cc:Work
         rdf:about="">
        <dc:format>image/svg+xml</dc:format>
        <dc:type
           rdf:resource="http://purl.org/dc/dcmitype/StillImage" />
        <dc:title></dc:title>
      </cc:Work>
    </rdf:RDF>
  </metadata>
  <g
     transform="translate(-3.0398369e-6,-112.50999)"
     id="layer3">
    <rect
       y="113.12295"
       x="0.61296386"
       height="104.77408"
       width="304.77408"
       id="rect859"
       style="fill:#121212;fill-opacity:1;stroke:#121212;stroke-width:1.22592247;stroke-linecap:square;stroke-linejoin:miter;stroke-miterlimit:4;stroke-dasharray:none;stroke-opacity:1;paint-order:fill markers stroke" />
  </g>
  <g
     transform="translate(-3.0398369e-6,-112.50999)"
     id="layer2">
    <rect
       y="115.51"
       x="103"
       height="100"
       width="100"
       id="rect815"
       style="fill:#3d69de;fill-opacity:1;stroke:none;stroke-width:2.9596827;stroke-linecap:square;stroke-linejoin:miter;stroke-miterlimit:4;stroke-dasharray:none;stroke-opacity:0.03474905;paint-order:fill markers stroke" />
    <rect
       y="115.50999"
       x="2.9999998"
       height="100"
       width="100"
       id="rect815-8"
       style="fill:#451ea6;fill-opacity:1;stroke:none;stroke-width:2.9596827;stroke-linecap:square;stroke-linejoin:miter;stroke-miterlimit:4;stroke-dasharray:none;stroke-opacity:0.03474905;paint-order:fill markers stroke" />
    <rect
       y="115.50999"
       x="203"
       height="100"
       width="100"
       id="rect815-7"
       style="fill:#451ea6;fill-opacity:1;stroke:none;stroke-width:2.9596827;stroke-linecap:square;stroke-linejoin:miter;stroke-miterlimit:4;stroke-dasharray:none;stroke-opacity:0.03474905;paint-order:fill markers stroke" />
  </g>
  <g
     transform="translate(2.999997,-206.50999)"
     id="layer1">
    <g
       transform="translate(-1.5875004,113.50999)"
       id="text871"
       style="font-style:normal;font-variant:normal;font-weight:500;font-stretch:normal;font-size:70.55555725px;line-height:1.25;font-family:'Roboto Mono Medium for Powerline';-inkscape-font-specification:'Roboto Mono Medium for Powerline, Medium';font-variant-ligatures:normal;font-variant-caps:normal;font-variant-numeric:normal;font-feature-settings:normal;text-align:start;letter-spacing:0px;word-spacing:0px;writing-mode:lr-tb;text-anchor:start;fill:#f2f2f2;fill-opacity:1;stroke:#121212;stroke-width:0.75;stroke-linecap:round;stroke-linejoin:round;stroke-miterlimit:4;stroke-dasharray:none;stroke-opacity:1"
       aria-label="Y">
      <path
         id="path3300"
         style="font-style:normal;font-variant:normal;font-weight:500;font-stretch:normal;font-size:70.55555725px;font-family:'Roboto Mono Medium for Powerline';-inkscape-font-specification:'Roboto Mono Medium for Powerline, Medium';font-variant-ligatures:normal;font-variant-caps:normal;font-variant-numeric:normal;font-feature-settings:normal;text-align:start;writing-mode:lr-tb;text-anchor:start;fill:#f2f2f2;fill-opacity:1;stroke:#121212;stroke-width:0.75;stroke-linecap:round;stroke-linejoin:round;stroke-miterlimit:4;stroke-dasharray:none;stroke-opacity:1"
         d="M 50,144.89757 60.43864,120.9197 h 9.232856 l -15.640734,32.14274 -0.0689,18.01785 H 45.93479 L 45.86589,152.85574 30.328509,120.9197 h 9.232856 z" />
    </g>
    <g
       transform="translate(-0.643319,14.291243)"
       id="text883"
       style="font-style:normal;font-variant:normal;font-weight:500;font-stretch:normal;font-size:70.55555725px;line-height:1.25;font-family:'Roboto Mono Medium for Powerline';-inkscape-font-specification:'Roboto Mono Medium for Powerline, Medium';font-variant-ligatures:normal;font-variant-caps:normal;font-variant-numeric:normal;font-feature-settings:normal;text-align:start;letter-spacing:0px;word-spacing:0px;writing-mode:lr-tb;text-anchor:start;fill:#f2f2f2;fill-opacity:1;stroke:#121212;stroke-width:0.75;stroke-linecap:round;stroke-linejoin:round;stroke-miterlimit:4;stroke-dasharray:none;stroke-opacity:1"
       aria-label="C">
      <path
         id="path3291"
         style="font-style:normal;font-variant:normal;font-weight:500;font-stretch:normal;font-size:70.55555725px;font-family:'Roboto Mono Medium for Powerline';-inkscape-font-specification:'Roboto Mono Medium for Powerline, Medium';font-variant-ligatures:normal;font-variant-caps:normal;font-variant-numeric:normal;font-feature-settings:normal;text-align:start;writing-mode:lr-tb;text-anchor:start;fill:#f2f2f2;fill-opacity:1;stroke:#121212;stroke-width:0.75;stroke-linecap:round;stroke-linejoin:round;stroke-miterlimit:4;stroke-dasharray:none;stroke-opacity:1"
         d="m 168.57504,254.89947 q -0.3445,3.61735 -1.72254,6.61459 -1.37804,2.96278 -3.6518,5.09874 -2.27377,2.10151 -5.37435,3.27284 -3.06614,1.13688 -6.85574,1.13688 -4.58198,0 -7.99263,-1.757 -3.41064,-1.79145 -5.6844,-4.82313 -2.27377,-3.03168 -3.41065,-7.0969 -1.13688,-4.06521 -1.17133,-8.68164 v -6.85574 q 0.0345,-4.58198 1.20578,-8.64719 1.17134,-4.09966 3.4451,-7.13135 2.30821,-3.06613 5.71886,-4.82313 3.41064,-1.79145 7.92372,-1.79145 3.96186,0 7.06244,1.17133 3.10059,1.17134 5.30545,3.30729 2.20486,2.13596 3.514,5.2021 1.30913,3.06613 1.68809,6.82129 h -8.26822 q -0.20671,-2.20486 -0.86128,-3.99631 -0.62012,-1.8259 -1.72255,-3.10059 -1.10243,-1.30914 -2.79052,-1.99815 -1.65365,-0.68902 -3.92741,-0.68902 -2.79053,0 -4.68533,1.27468 -1.89481,1.27469 -3.06614,3.4451 -1.17133,2.13596 -1.68809,4.96094 -0.48232,2.82497 -0.48232,5.92556 v 6.92464 q 0,3.23839 0.48232,6.09782 0.51676,2.82498 1.65364,4.96094 1.13688,2.13596 3.03169,3.37619 1.8948,1.24024 4.71978,1.24024 4.34082,0 6.61458,-2.44602 2.27376,-2.48047 2.68717,-6.99355 z" />
    </g>
    <g
       id="text4624"
       style="font-style:normal;font-variant:normal;font-weight:normal;font-stretch:normal;font-size:4.23333311px;line-height:125%;font-family:'Droid Sans Mono Slashed for Powerline';-inkscape-font-specification:'Droid Sans Mono Slashed for Powerline';letter-spacing:0px;word-spacing:0px;fill:#f2f2f2;fill-opacity:1;stroke:#121212;stroke-width:0.75;stroke-linecap:butt;stroke-linejoin:miter;stroke-miterlimit:4;stroke-dasharray:none;stroke-opacity:1"
       aria-label="P ">
      <path
         id="path4631"
         style="font-style:normal;font-variant:normal;font-weight:500;font-stretch:normal;font-size:72.31945038px;font-family:Roboto;-inkscape-font-specification:'Roboto, Medium';font-variant-ligatures:normal;font-variant-caps:normal;font-variant-numeric:normal;font-feature-settings:normal;text-align:start;writing-mode:lr-tb;text-anchor:start;fill:#f2f2f2;fill-opacity:1;stroke:#121212;stroke-width:0.75;stroke-miterlimit:4;stroke-dasharray:none;stroke-opacity:1"
         d="m 241.31162,266.11337 v 19.10392 h -8.934 v -51.41461 h 19.66892 q 8.61618,0 13.66583,4.48465 5.08496,4.48465 5.08496,11.86491 0,7.55682 -4.97902,11.75897 -4.94372,4.20216 -13.87771,4.20216 z m 0,-7.16839 h 10.73492 q 4.76715,0 7.27432,-2.22467 2.50716,-2.25998 2.50716,-6.49745 0,-4.16684 -2.54248,-6.6387 -2.54248,-2.50716 -6.99182,-2.57779 h -10.9821 z" />
    </g>
  </g>
</svg>
