<?xml version="1.0" encoding="UTF-8" standalone="no"?>
<svg
   xmlns:dc="http://purl.org/dc/elements/1.1/"
   xmlns:cc="http://creativecommons.org/ns#"
   xmlns:rdf="http://www.w3.org/1999/02/22-rdf-syntax-ns#"
   xmlns:svg="http://www.w3.org/2000/svg"
   xmlns="http://www.w3.org/2000/svg"
   id="svg8"
   version="1.1"
   viewBox="0 0 206 206"
   height="206mm"
   width="206mm">
  <defs
     id="defs2" />
  <metadata
     id="metadata5">
    <rdf:RDF>
      <cc:Work
         rdf:about="">
        <dc:format>image/svg+xml</dc:format>
        <dc:type
           rdf:resource="http://purl.org/dc/dcmitype/StillImage" />
        <dc:title></dc:title>
      </cc:Work>
    </rdf:RDF>
  </metadata>
  <g
     id="layer3">
    <rect
       y="0.70180225"
       x="0.70180273"
       height="204.59639"
       width="204.59641"
       id="rect859"
       style="fill:#121212;fill-opacity:1;stroke:#000000;stroke-width:1.40360546;stroke-linecap:square;stroke-linejoin:miter;stroke-miterlimit:4;stroke-dasharray:none;stroke-opacity:1;paint-order:fill markers stroke" />
  </g>
  <g
     id="layer2">
    <rect
       y="197"
       x="0"
       height="100"
       width="100"
       id="rect815"
       style="fill:#3d69de;fill-opacity:1;stroke:none;stroke-width:2.9596827;stroke-linecap:square;stroke-linejoin:miter;stroke-miterlimit:4;stroke-dasharray:none;stroke-opacity:0.03474905;paint-order:fill markers stroke"
       transform="translate(3.0000001,-94)" />
    <rect
       transform="translate(3.0000001,-94)"
       y="97"
       x="0"
       height="100"
       width="100"
       id="rect815-8"
       style="fill:#451ea6;fill-opacity:1;stroke:none;stroke-width:2.9596827;stroke-linecap:square;stroke-linejoin:miter;stroke-miterlimit:4;stroke-dasharray:none;stroke-opacity:0.03474905;paint-order:fill markers stroke" />
    <rect
       y="97"
       x="100"
       height="100"
       width="100"
       id="rect815-5"
       style="fill:#3d69de;fill-opacity:1;stroke:none;stroke-width:2.9596827;stroke-linecap:square;stroke-linejoin:miter;stroke-miterlimit:4;stroke-dasharray:none;stroke-opacity:0.03474905;paint-order:fill markers stroke"
       transform="translate(3.0000001,-94)" />
    <rect
       y="197"
       x="100"
       height="100"
       width="100"
       id="rect815-7"
       style="fill:#451ea6;fill-opacity:1;stroke:none;stroke-width:2.9596827;stroke-linecap:square;stroke-linejoin:miter;stroke-miterlimit:4;stroke-dasharray:none;stroke-opacity:0.03474905;paint-order:fill markers stroke"
       transform="translate(3.0000001,-94)" />
  </g>
  <g
     transform="translate(3,-94)"
     id="layer1">
    <g
       id="text867"
       style="font-style:normal;font-weight:normal;font-size:10.58333302px;line-height:1.25;font-family:sans-serif;letter-spacing:0px;word-spacing:0px;fill:#f2f2f2;fill-opacity:1;stroke:#121212;stroke-width:0.75;stroke-linecap:round;stroke-linejoin:round;stroke-miterlimit:4;stroke-dasharray:none;stroke-opacity:1"
       aria-label="WY4RC">
      <path
         id="path3248"
         style="letter-spacing:1.58749998px;stroke:#121212;stroke-opacity:1"
         d="m 71.849263,199.93263 1.343587,-12.33775 h 2.89388 l -2.402954,18.81023 h -2.971395 l -2.054138,-12.5057 -2.0283,12.5057 h -2.958476 l -2.402954,-18.81023 h 2.89388 l 1.343587,12.27316 1.924947,-12.27316 h 2.428793 z" />
      <path
         id="path3250"
         style="letter-spacing:-1.58749998px;stroke:#121212;stroke-opacity:1"
         d="m 86.058732,196.58658 3.91449,-8.9917 h 3.462321 l -5.865275,12.05353 -0.02584,6.7567 h -3.010152 l -0.02584,-6.83421 -5.826518,-11.97602 h 3.462321 z" />
      <path
         id="path3252"
         style="font-style:normal;font-variant:normal;font-weight:500;font-stretch:normal;font-size:26.45833397px;font-family:'Roboto Mono Medium for Powerline';-inkscape-font-specification:'Roboto Mono Medium for Powerline, Medium';font-variant-ligatures:normal;font-variant-caps:normal;font-variant-numeric:normal;font-feature-settings:normal;text-align:start;writing-mode:lr-tb;text-anchor:start;fill:#f2f2f2;fill-opacity:1;stroke:#121212;stroke-width:0.75;stroke-linecap:round;stroke-linejoin:round;stroke-miterlimit:4;stroke-dasharray:none;stroke-opacity:1"
         d="m 104.56044,199.72593 h 2.3642 v 2.49338 h -2.3642 v 4.1858 h -3.08766 v -4.1858 h -8.164879 l -0.07751,-1.87327 8.139043,-12.75116 h 3.19101 z m -8.151953,0 h 5.064293 v -8.00985 l -0.3359,0.6072 z" />
      <path
         id="path3254"
         style="font-style:normal;font-variant:normal;font-weight:500;font-stretch:normal;font-size:26.45833397px;font-family:'Roboto Mono Medium for Powerline';-inkscape-font-specification:'Roboto Mono Medium for Powerline, Medium';font-variant-ligatures:normal;font-variant-caps:normal;font-variant-numeric:normal;font-feature-settings:normal;text-align:start;writing-mode:lr-tb;text-anchor:start;fill:#f2f2f2;fill-opacity:1;stroke:#121212;stroke-width:0.75;stroke-linecap:round;stroke-linejoin:round;stroke-miterlimit:4;stroke-dasharray:none;stroke-opacity:1"
         d="m 116.47186,199.06705 h -3.15226 v 7.33806 h -3.10059 v -18.81023 h 5.94279 q 1.44694,0.0129 2.66134,0.37466 1.22731,0.34881 2.11873,1.05936 0.89142,0.69764 1.38235,1.757 0.49092,1.05937 0.49092,2.48047 0,0.95602 -0.25838,1.74408 -0.24546,0.77515 -0.69763,1.40818 -0.45217,0.63304 -1.08521,1.11105 -0.63303,0.47801 -1.39526,0.8139 l 3.97909,7.9065 v 0.15503 h -3.3073 z m -3.15226,-2.5063 h 2.85512 q 0.77515,0 1.4211,-0.21963 0.64596,-0.21962 1.11105,-0.62012 0.478,-0.41341 0.73639,-0.99477 0.25838,-0.59428 0.25838,-1.3565 0,-0.78807 -0.24546,-1.39527 -0.24547,-0.6072 -0.71056,-1.02061 -0.45216,-0.41341 -1.11104,-0.62012 -0.65887,-0.21962 -1.47278,-0.23254 h -2.8422 z" />
      <path
         id="path3256"
         style="font-style:normal;font-variant:normal;font-weight:500;font-stretch:normal;font-size:26.45833397px;font-family:'Roboto Mono Medium for Powerline';-inkscape-font-specification:'Roboto Mono Medium for Powerline, Medium';font-variant-ligatures:normal;font-variant-caps:normal;font-variant-numeric:normal;font-feature-settings:normal;text-align:start;writing-mode:lr-tb;text-anchor:start;fill:#f2f2f2;fill-opacity:1;stroke:#121212;stroke-width:0.75;stroke-linecap:round;stroke-linejoin:round;stroke-miterlimit:4;stroke-dasharray:none;stroke-opacity:1"
         d="m 138.73149,200.63026 q -0.12919,1.35651 -0.64596,2.48047 -0.51676,1.11105 -1.36942,1.91203 -0.85267,0.78807 -2.01539,1.22732 -1.1498,0.42633 -2.5709,0.42633 -1.71824,0 -2.99723,-0.65888 -1.27899,-0.67179 -2.13165,-1.80867 -0.85267,-1.13688 -1.279,-2.66134 -0.42633,-1.52445 -0.43925,-3.25561 V 195.721 q 0.0129,-1.71824 0.45217,-3.24269 0.43925,-1.53738 1.29191,-2.67426 0.86558,-1.1498 2.14458,-1.80867 1.27899,-0.6718 2.97139,-0.6718 1.4857,0 2.64842,0.43925 1.16272,0.43925 1.98954,1.24024 0.82682,0.80098 1.31775,1.95078 0.49093,1.1498 0.63304,2.55799 h -3.10059 q -0.0775,-0.82683 -0.32298,-1.49862 -0.23254,-0.68471 -0.64595,-1.16272 -0.41341,-0.49093 -1.04645,-0.74931 -0.62012,-0.25838 -1.47278,-0.25838 -1.04645,0 -1.757,0.47801 -0.71055,0.478 -1.1498,1.29191 -0.43925,0.80098 -0.63303,1.86035 -0.18087,1.05936 -0.18087,2.22208 v 2.59675 q 0,1.21439 0.18087,2.28668 0.19378,1.05936 0.62011,1.86035 0.42633,0.80098 1.13688,1.26607 0.71056,0.46509 1.76992,0.46509 1.62781,0 2.48047,-0.91726 0.85266,-0.93017 1.00769,-2.62258 z" />
    </g>
    <g
       id="text871"
       style="font-style:normal;font-variant:normal;font-weight:500;font-stretch:normal;font-size:70.55555725px;line-height:1.25;font-family:'Roboto Mono Medium for Powerline';-inkscape-font-specification:'Roboto Mono Medium for Powerline, Medium';font-variant-ligatures:normal;font-variant-caps:normal;font-variant-numeric:normal;font-feature-settings:normal;text-align:start;letter-spacing:0px;word-spacing:0px;writing-mode:lr-tb;text-anchor:start;fill:#f2f2f2;fill-opacity:1;stroke:#121212;stroke-width:0.75;stroke-linecap:round;stroke-linejoin:round;stroke-miterlimit:4;stroke-dasharray:none;stroke-opacity:1"
       aria-label="Y">
      <path
         id="path3259"
         style="font-style:normal;font-variant:normal;font-weight:500;font-stretch:normal;font-size:70.55555725px;font-family:'Roboto Mono Medium for Powerline';-inkscape-font-specification:'Roboto Mono Medium for Powerline, Medium';font-variant-ligatures:normal;font-variant-caps:normal;font-variant-numeric:normal;font-feature-settings:normal;text-align:start;writing-mode:lr-tb;text-anchor:start;fill:#f2f2f2;fill-opacity:1;stroke:#121212;stroke-width:0.75;stroke-linecap:round;stroke-linejoin:round;stroke-miterlimit:4;stroke-dasharray:none;stroke-opacity:1"
         d="M 50,145.89757 60.43864,121.9197 h 9.232856 l -15.640734,32.14274 -0.0689,18.01785 h -8.027072 l -0.0689,-18.22455 -15.537381,-31.93604 h 9.232856 z" />
    </g>
    <g
       id="text875"
       style="font-style:normal;font-variant:normal;font-weight:500;font-stretch:normal;font-size:70.55555725px;line-height:1.25;font-family:'Roboto Mono Medium for Powerline';-inkscape-font-specification:'Roboto Mono Medium for Powerline, Medium';font-variant-ligatures:normal;font-variant-caps:normal;font-variant-numeric:normal;font-feature-settings:normal;text-align:start;letter-spacing:0px;word-spacing:0px;writing-mode:lr-tb;text-anchor:start;fill:#f2f2f2;fill-opacity:1;stroke:#121212;stroke-width:0.75;stroke-linecap:round;stroke-linejoin:round;stroke-miterlimit:4;stroke-dasharray:none;stroke-opacity:1"
       aria-label="A">
      <path
         id="path3245"
         style="font-style:normal;font-variant:normal;font-weight:500;font-stretch:normal;font-size:70.55555725px;font-family:'Roboto Mono Medium for Powerline';-inkscape-font-specification:'Roboto Mono Medium for Powerline, Medium';font-variant-ligatures:normal;font-variant-caps:normal;font-variant-numeric:normal;font-feature-settings:normal;text-align:start;writing-mode:lr-tb;text-anchor:start;fill:#f2f2f2;fill-opacity:1;stroke:#121212;stroke-width:0.75;stroke-linecap:round;stroke-linejoin:round;stroke-miterlimit:4;stroke-dasharray:none;stroke-opacity:1"
         d="m 157.88927,160.43587 h -15.67519 l -3.44509,11.64442 h -8.54384 l 16.2953,-50.16059 h 7.26915 l 15.98525,50.16059 h -8.50939 z m -13.57368,-7.06245 h 11.50662 l -5.68441,-19.67149 z" />
    </g>
    <g
       id="text879"
       style="font-style:normal;font-variant:normal;font-weight:500;font-stretch:normal;font-size:70.55555725px;line-height:1.25;font-family:'Roboto Mono Medium for Powerline';-inkscape-font-specification:'Roboto Mono Medium for Powerline, Medium';font-variant-ligatures:normal;font-variant-caps:normal;font-variant-numeric:normal;font-feature-settings:normal;text-align:start;letter-spacing:0px;word-spacing:0px;writing-mode:lr-tb;text-anchor:start;fill:#f2f2f2;fill-opacity:1;stroke:#121212;stroke-width:0.75;stroke-linecap:round;stroke-linejoin:round;stroke-miterlimit:4;stroke-dasharray:none;stroke-opacity:1"
       aria-label="R">
      <path
         id="path3239"
         style="font-style:normal;font-variant:normal;font-weight:500;font-stretch:normal;font-size:70.55555725px;font-family:'Roboto Mono Medium for Powerline';-inkscape-font-specification:'Roboto Mono Medium for Powerline, Medium';font-variant-ligatures:normal;font-variant-caps:normal;font-variant-numeric:normal;font-feature-settings:normal;text-align:start;writing-mode:lr-tb;text-anchor:start;fill:#f2f2f2;fill-opacity:1;stroke:#121212;stroke-width:0.75;stroke-linecap:round;stroke-linejoin:round;stroke-miterlimit:4;stroke-dasharray:none;stroke-opacity:1"
         d="m 49.155952,252.51215 h -8.406033 v 19.56814 H 32.48169 V 221.9197 h 15.847439 q 3.858507,0.0344 7.096897,0.99908 3.272841,0.93017 5.649957,2.82498 2.377116,1.86035 3.686252,4.68533 1.309136,2.82497 1.309136,6.61458 0,2.54937 -0.689019,4.65088 -0.654568,2.06706 -1.860351,3.75515 -1.205784,1.6881 -2.893881,2.96279 -1.688096,1.27468 -3.720703,2.17041 l 10.610895,21.08398 v 0.41341 h -8.819445 z m -8.406033,-6.68349 h 7.613661 q 2.067057,0 3.789605,-0.58566 1.722548,-0.58567 2.962782,-1.65365 1.274686,-1.10243 1.963705,-2.65272 0.689019,-1.58475 0.689019,-3.61735 0,-2.10151 -0.654568,-3.72071 -0.654568,-1.61919 -1.894803,-2.72162 -1.205783,-1.10243 -2.962782,-1.65365 -1.756999,-0.58566 -3.927409,-0.62011 h -7.57921 z" />
    </g>
    <g
       id="text883"
       style="font-style:normal;font-variant:normal;font-weight:500;font-stretch:normal;font-size:70.55555725px;line-height:1.25;font-family:'Roboto Mono Medium for Powerline';-inkscape-font-specification:'Roboto Mono Medium for Powerline, Medium';font-variant-ligatures:normal;font-variant-caps:normal;font-variant-numeric:normal;font-feature-settings:normal;text-align:start;letter-spacing:0px;word-spacing:0px;writing-mode:lr-tb;text-anchor:start;fill:#f2f2f2;fill-opacity:1;stroke:#121212;stroke-width:0.75;stroke-linecap:round;stroke-linejoin:round;stroke-miterlimit:4;stroke-dasharray:none;stroke-opacity:1"
       aria-label="C">
      <path
         id="path3242"
         style="font-style:normal;font-variant:normal;font-weight:500;font-stretch:normal;font-size:70.55555725px;font-family:'Roboto Mono Medium for Powerline';-inkscape-font-specification:'Roboto Mono Medium for Powerline, Medium';font-variant-ligatures:normal;font-variant-caps:normal;font-variant-numeric:normal;font-feature-settings:normal;text-align:start;writing-mode:lr-tb;text-anchor:start;fill:#f2f2f2;fill-opacity:1;stroke:#121212;stroke-width:0.75;stroke-linecap:round;stroke-linejoin:round;stroke-miterlimit:4;stroke-dasharray:none;stroke-opacity:1"
         d="m 167.93172,256.68071 q -0.3445,3.61735 -1.72254,6.61459 -1.37804,2.96278 -3.6518,5.09874 -2.27377,2.10151 -5.37435,3.27284 -3.06614,1.13688 -6.85574,1.13688 -4.58198,0 -7.99263,-1.757 -3.41064,-1.79145 -5.6844,-4.82313 -2.27377,-3.03168 -3.41065,-7.0969 -1.13688,-4.06521 -1.17133,-8.68164 v -6.85574 q 0.0345,-4.58198 1.20578,-8.64719 1.17134,-4.09966 3.4451,-7.13135 2.30821,-3.06613 5.71886,-4.82313 3.41064,-1.79145 7.92372,-1.79145 3.96186,0 7.06244,1.17133 3.10059,1.17134 5.30545,3.30729 2.20486,2.13596 3.514,5.2021 1.30913,3.06613 1.68809,6.82129 h -8.26822 q -0.20671,-2.20486 -0.86128,-3.99631 -0.62012,-1.8259 -1.72255,-3.10059 -1.10243,-1.30914 -2.79052,-1.99815 -1.65365,-0.68902 -3.92741,-0.68902 -2.79053,0 -4.68533,1.27468 -1.89481,1.27469 -3.06614,3.4451 -1.17133,2.13596 -1.68809,4.96094 -0.48232,2.82497 -0.48232,5.92556 v 6.92464 q 0,3.23839 0.48232,6.09782 0.51676,2.82498 1.65364,4.96094 1.13688,2.13596 3.03169,3.37619 1.8948,1.24024 4.71978,1.24024 4.34082,0 6.61458,-2.44602 2.27376,-2.48047 2.68717,-6.99355 z" />
    </g>
  </g>
</svg>
